<?xml version="1.0" standalone="no"?>
<!DOCTYPE svg PUBLIC "-//W3C//DTD SVG 20010904//EN"
 "http://www.w3.org/TR/2001/REC-SVG-20010904/DTD/svg10.dtd">
<svg version="1.0" xmlns="http://www.w3.org/2000/svg"
 width="300.000000pt" height="300.000000pt" viewBox="0 0 300.000000 300.000000"
 preserveAspectRatio="xMidYMid meet">
<metadata>
Created by potrace 1.11, written by Peter Selinger 2001-2013
</metadata>
<g transform="translate(0.000000,300.000000) scale(0.100000,-0.100000)"
fill="#000000" stroke="none">
<path d="M1381 2744 c-131 -35 -243 -130 -307 -260 l-39 -78 0 -125 c0 -148
17 -203 93 -304 91 -119 221 -182 377 -182 156 0 286 63 377 182 76 101 93
156 93 304 l0 125 -39 78 c-44 90 -124 176 -202 218 -104 56 -241 72 -353 42z"/>
<path d="M1030 1500 l0 -90 475 0 475 0 0 90 0 90 -475 0 -475 0 0 -90z"/>
<path d="M1030 1115 l0 -95 190 0 190 0 0 -100 0 -100 -190 0 -190 0 0 -95 0
-95 190 0 190 0 0 -195 0 -195 95 0 95 0 0 195 0 195 190 0 190 0 0 95 0 95
-190 0 -190 0 0 100 0 100 190 0 190 0 0 95 0 95 -475 0 -475 0 0 -95z"/>
</g>
</svg>
